<svg preserveAspectRatio="none" id="Layer_1" data-name="Layer 1" xmlns="http://www.w3.org/2000/svg" xmlns:xlink="http://www.w3.org/1999/xlink" viewBox="0 0 1070.21 959.7"><defs><style>.cls-1,.cls-11,.cls-3,.cls-4,.cls-7,.cls-8{fill:none;}.cls-2{fill:#f2f2f2;}.cls-3,.cls-4,.cls-7,.cls-8{stroke:#29b9d6;}.cls-11,.cls-3,.cls-4,.cls-7,.cls-8{stroke-linecap:round;stroke-linejoin:round;}.cls-3{stroke-width:5.39px;}.cls-4{stroke-width:5.64px;}.cls-5{clip-path:url(#clip-path);}.cls-6{clip-path:url(#clip-path-2);}.cls-7{stroke-width:5.16px;}.cls-8{stroke-width:5.4px;}.cls-9{clip-path:url(#clip-path-3);}.cls-10{clip-path:url(#clip-path-4);}.cls-11{stroke:#f18a40;stroke-width:5.78px;}</style><clipPath id="clip-path"><rect class="cls-1" width="410.62" height="131.74"/></clipPath><clipPath id="clip-path-2"><rect class="cls-1" x="486.68" y="62.46" width="478.84" height="81.52"/></clipPath><clipPath id="clip-path-3"><rect class="cls-1" x="659.6" y="827.96" width="410.62" height="131.74" transform="translate(1729.81 1787.66) rotate(-180)"/></clipPath><clipPath id="clip-path-4"><rect class="cls-1" x="121.23" y="819.82" width="478.84" height="81.52" transform="translate(721.3 1721.15) rotate(-180)"/></clipPath></defs><path class="cls-2" d="M56.54,101c2.43-.31,15.39-2.2,23.64-13.7a33.44,33.44,0,0,0,6-16.94l187.91-.32,85.55,64.11,621.38-1-5.38,320.09A16.12,16.12,0,0,0,959.94,468c-.53,8.61,6.53,16.47,15.73,16.75l31,49.81q.21,162.34.43,324.69a32.41,32.41,0,0,0-14.68,8.59,33.11,33.11,0,0,0-9.08,20.61l-187.92.31L709.9,824.66H402.17a15.75,15.75,0,1,0-31.5.48l-282.16-.48V470.74L57.27,422Q56.91,261.51,56.54,101Z"/><path class="cls-3" d="M402.17,824.66H709.9l85.54,64.11,187.92-.31"/><circle class="cls-4" cx="1015.08" cy="889.76" r="31.51"/><rect class="cls-1" x="941.41" y="94.06" width="79.28" height="267.59"/><polyline class="cls-3" points="965.52 133.16 359.67 134.16 274.12 70.05 86.21 70.36"/><circle class="cls-4" cx="54.49" cy="69.06" r="31.51"/><rect class="cls-1" y="8.79" width="410.62" height="131.74"/><g class="cls-5"><polyline class="cls-3" points="976.69 109.64 370.84 110.65 285.3 46.54 97.38 46.85"/></g><g class="cls-6"><polyline class="cls-7" points="946.66 110.88 391.41 111.89 313.01 47.78 140.79 48.09"/><ellipse class="cls-8" cx="111.72" cy="46.79" rx="28.88" ry="31.51"/></g><g class="cls-9"><path class="cls-3" d="M93.52,850.06l605.85-1,85.55,64.1,165.44-.27"/></g><g class="cls-10"><polyline class="cls-7" points="140.09 852.91 695.34 851.91 773.74 916.01 945.96 915.7"/><ellipse class="cls-8" cx="975.03" cy="917" rx="28.88" ry="31.51"/></g><polyline class="cls-11" points="1007.22 853.36 1006.69 534.57 975.44 485.84"/><path class="cls-11" d="M1003.8,490.2l33.77,52.09V814.06"/><polyline class="cls-11" points="71.37 485.34 37.6 433.25 37.6 126.55"/><line class="cls-11" x1="71.37" y1="587.33" x2="71.37" y2="751.25"/><line class="cls-7" x1="1003.8" y1="158.4" x2="1003.8" y2="407.07"/><polyline class="cls-3" points="965.52 133.16 981.05 133.16 975.67 453.24"/><circle class="cls-11" cx="975.67" cy="469" r="15.76"/><path class="cls-11" d="M56.74,103.22Q57,262.61,57.27,422l31.24,48.73V824.66l275.94.58"/><path class="cls-11" d="M402.17,824.66a15.76,15.76,0,1,1-15.76-15.75A15.75,15.75,0,0,1,402.17,824.66Z"/></svg>